<svg width="36" height="36" viewBox="0 0 36 36" fill="none" xmlns="http://www.w3.org/2000/svg">
<g id="Office">
<path id="Vector" d="M6.75 4.5V29.25H20.25V4.5H6.75ZM5.625 2.25H21.375C21.6734 2.25 21.9595 2.36853 22.1705 2.5795C22.3815 2.79048 22.5 3.07663 22.5 3.375V30.375C22.5 30.6734 22.3815 30.9595 22.1705 31.1705C21.9595 31.3815 21.6734 31.5 21.375 31.5H5.625C5.32663 31.5 5.04048 31.3815 4.82951 31.1705C4.61853 30.9595 4.5 30.6734 4.5 30.375V3.375C4.5 3.07663 4.61853 2.79048 4.82951 2.5795C5.04048 2.36853 5.32663 2.25 5.625 2.25Z" fill="#878786"/>
<path id="Vector_2" d="M9 9H18V11.25H9V9ZM9 15.75H18V18H9V15.75ZM9 22.5H18V24.75H9V22.5ZM22.5 18H27V20.25H22.5V18ZM22.5 22.5H27V24.75H22.5V22.5ZM2.25 29.25H33.75V31.5H2.25V29.25Z" fill="#878786"/>
<path id="Vector_3" d="M22.5 13.5V29.25H29.25V13.5H22.5ZM21.375 11.25H30.375C30.6734 11.25 30.9595 11.3685 31.1705 11.5795C31.3815 11.7905 31.5 12.0766 31.5 12.375V30.375C31.5 30.6734 31.3815 30.9595 31.1705 31.1705C30.9595 31.3815 30.6734 31.5 30.375 31.5H21.375C21.0766 31.5 20.7905 31.3815 20.5795 31.1705C20.3685 30.9595 20.25 30.6734 20.25 30.375V12.375C20.25 12.0766 20.3685 11.7905 20.5795 11.5795C20.7905 11.3685 21.0766 11.25 21.375 11.25Z" fill="#878786"/>
</g>
</svg>
